<?xml version="1.0" encoding="utf-8"?>
<!-- Generated by IcoMoon.io -->
<!DOCTYPE svg PUBLIC "-//W3C//DTD SVG 1.1//EN" "http://www.w3.org/Graphics/SVG/1.1/DTD/svg11.dtd">
<svg version="1.1" xmlns="http://www.w3.org/2000/svg" xmlns:xlink="http://www.w3.org/1999/xlink" width="280" height="40" viewBox="0 0 280 40">
<g transform="translate(0 0)">
	<path d="M2 8l4-4h-2l-4 4 4 4h2zM12 4h-2l4 4-4 4h2l4-4zM8.5 2l-2.5 12h1.5l2.5-12z" fill="#666666" />
</g>
<g transform="translate(24 0)">
	<path d="M0 1h16v2h-16zM0 4h10v2h-10zM0 10h10v2h-10zM0 7h16v2h-16zM0 13h16v2h-16z" fill="#666666" />
</g>
<g transform="translate(48 0)">
	<path d="M0 1h16v2h-16zM3 4h10v2h-10zM3 10h10v2h-10zM0 7h16v2h-16zM0 13h16v2h-16z" fill="#666666" />
</g>
<g transform="translate(72 0)">
	<path d="M0 1h16v2h-16zM6 4h10v2h-10zM6 10h10v2h-10zM0 7h16v2h-16zM0 13h16v2h-16z" fill="#666666" />
</g>
<g transform="translate(96 0)">
	<path d="M0 1h16v2h-16zM0 4h16v2h-16zM0 7h16v2h-16zM0 10h16v2h-16zM0 13h16v2h-16z" fill="#666666" />
</g>
<g transform="translate(120 0)">
	<path d="M0 1h16v2h-16zM6 4h10v2h-10zM6 7h10v2h-10zM6 10h10v2h-10zM0 13h16v2h-16zM0 11v-6l4 3z" fill="#666666" />
</g>
<g transform="translate(144 0)">
	<path d="M0 1h16v2h-16zM6 4h10v2h-10zM6 7h10v2h-10zM6 10h10v2h-10zM0 13h16v2h-16zM4 5v6l-4-3z" fill="#666666" />
</g>
<g transform="translate(168 0)">
	<path d="M12.494 0.253c-1.414 0-2.322-0.253-3.779-0.253-4.708 0-6.903 2.681-6.903 5.404 0 1.604 0.76 2.132 2.259 2.132-0.106-0.232-0.296-0.486-0.296-1.626 0-3.188 1.203-4.117 2.744-4.18 0 0-1.264 12.396-4.934 13.883v0.385h4.947l1.688-8h3.091l0.689-2h-3.358l0.812-3.847c0.929 0.19 1.837 0.38 2.618 0.38 0.971 0 1.858-0.296 2.343-2.533-0.591 0.19-1.224 0.253-1.921 0.253z" fill="#666666" />
</g>
<g transform="translate(192 0)">
	<path d="M14 12h2l-2.5 3-2.5-3h2v-8h-2l2.5-3 2.5 3h-2zM10 1v4l-1-2h-3v11h2v1h-6v-1h2v-11h-3l-1 2v-4z" fill="#666666" />
</g>
<g transform="translate(216 0)">
	<path d="M11 1h2v6.5c0 2.485-2.239 4.5-5 4.5-2.761 0-5-2.015-5-4.5v-6.5h2v6.5c0 0.628 0.285 1.23 0.802 1.695 0.577 0.519 1.357 0.805 2.198 0.805 0.841 0 1.621-0.286 2.198-0.805 0.517-0.466 0.802-1.068 0.802-1.695v-6.5zM3 13h10v2h-10z" fill="#666666" />
</g>
<g transform="translate(240 0)">
	<path d="M11.061 7.573c0.586-0.696 0.939-1.594 0.939-2.573 0-2.206-1.794-4-4-4h-5v14h6c2.206 0 4-1.794 4-4 0-1.452-0.778-2.726-1.939-3.427zM6 3h1.586c0.874 0 1.586 0.897 1.586 2s-0.711 2-1.586 2h-1.586v-4zM8.484 13h-2.484v-4h2.484c0.913 0 1.656 0.897 1.656 2s-0.743 2-1.656 2z" fill="#666666" />
</g>
<g transform="translate(264 0)">
	<path d="M14 1v1h-2l-5 12h2v1h-7v-1h2l5-12h-2v-1z" fill="#666666" />
</g>
<g transform="translate(0 24)">
	<path d="M6 1h10v2h-10v-2zM6 7h10v2h-10v-2zM6 13h10v2h-10v-2zM0 2c0-1.105 0.895-2 2-2s2 0.895 2 2c0 1.105-0.895 2-2 2-1.105 0-2-0.895-2-2zM0 8c0-1.105 0.895-2 2-2s2 0.895 2 2c0 1.105-0.895 2-2 2-1.105 0-2-0.895-2-2zM0 14c0-1.105 0.895-2 2-2s2 0.895 2 2c0 1.105-0.895 2-2 2-1.105 0-2-0.895-2-2z" fill="#666666" />
</g>
<g transform="translate(24 24)">
	<path d="M6 13h10v2h-10zM6 7h10v2h-10zM6 1h10v2h-10zM3 0v4h-1v-3h-1v-1zM2 8.219v0.781h2v1h-3v-2.281l2-0.938v-0.781h-2v-1h3v2.281zM4 11v5h-3v-1h2v-1h-2v-1h2v-1h-2v-1z" fill="#666666" />
</g>
<g transform="translate(48 24)">
	<path d="M0 2v13h16v-13h-16zM15 14h-14v-11h14v11zM11 5.5c0-0.828 0.672-1.5 1.5-1.5s1.5 0.672 1.5 1.5c0 0.828-0.672 1.5-1.5 1.5-0.828 0-1.5-0.672-1.5-1.5zM14 13h-12l3-8 4 5 2-1.5z" fill="#666666" />
</g>
</svg>
